<?xml version="1.0" standalone="no"?>
<!DOCTYPE svg PUBLIC "-//W3C//DTD SVG 20010904//EN"
 "http://www.w3.org/TR/2001/REC-SVG-20010904/DTD/svg10.dtd">
<svg version="1.0" xmlns="http://www.w3.org/2000/svg"
 width="207.000000pt" height="207.000000pt" viewBox="0 0 207.000000 207.000000"
 preserveAspectRatio="xMidYMid meet">
<metadata>
Created by potrace 1.16, written by Peter Selinger 2001-2019
</metadata>
<g transform="translate(0.000000,207.000000) scale(0.100000,-0.100000)"
fill="#000000" stroke="none">
<path d="M142 1037 l3 -892 891 -1 892 -2 1 893 1 894 -895 0 -895 1 2 -893z
m607 660 c7 -9 12 -93 13 -238 l3 -224 45 0 45 0 3 219 c2 190 5 222 19 239
16 17 38 18 454 15 351 -2 439 -6 452 -17 25 -20 25 -371 1 -395 -13 -14 -50
-16 -250 -16 l-234 0 0 -24 0 -24 236 -3 c219 -4 237 -5 250 -23 22 -31 20
-353 -2 -385 l-17 -24 -503 5 -504 5 0 -28 0 -28 500 -3 c464 -3 501 -4 517
-21 16 -16 18 -38 18 -198 0 -169 -1 -182 -20 -196 -18 -13 -101 -14 -725 -8
-640 6 -707 8 -724 23 -18 16 -19 38 -12 671 4 393 11 662 17 673 9 16 26 18
208 18 153 0 201 -3 210 -13z"/>
<path d="M440 1020 l0 -570 599 0 c330 0 606 -3 615 -6 14 -5 16 6 16 85 l0
91 -248 0 c-439 0 -762 11 -778 27 -20 20 -20 255 0 272 10 9 148 11 520 9
l506 -3 0 88 0 87 -229 0 c-197 0 -232 2 -246 16 -13 13 -15 38 -13 152 l3
137 248 3 247 2 0 85 0 85 -350 0 -350 0 -2 -232 -3 -233 -152 -3 c-127 -2
-154 0 -167 13 -14 14 -16 49 -16 241 l0 224 -100 0 -100 0 0 -570z"/>
</g>
</svg>
