<?xml version="1.0" standalone="no"?>
<!DOCTYPE svg PUBLIC "-//W3C//DTD SVG 20010904//EN"
 "http://www.w3.org/TR/2001/REC-SVG-20010904/DTD/svg10.dtd">
<svg version="1.0" xmlns="http://www.w3.org/2000/svg"
 width="512.000000pt" height="512.000000pt" viewBox="0 0 512.000000 512.000000"
 preserveAspectRatio="xMidYMid meet">

<g transform="translate(0.000000,512.000000) scale(0.100000,-0.100000)"
fill="#000000" stroke="none">
<path d="M0 2560 l0 -2560 2560 0 2560 0 0 2560 0 2560 -2560 0 -2560 0 0
-2560z m1617 881 c2 -540 4 -596 19 -612 16 -18 38 -19 339 -19 301 0 323 1
339 19 15 16 17 72 19 612 l2 594 970 0 970 0 0 -300 0 -300 -636 -3 -637 -2
-6 -23 c-3 -12 -6 -146 -6 -298 0 -219 3 -279 13 -288 10 -8 199 -12 643 -13
l629 -3 0 -298 0 -297 -1313 -3 c-1302 -2 -1314 -2 -1325 -22 -8 -13 -14 -109
-17 -289 -5 -250 -4 -271 13 -293 l18 -23 1312 -2 1312 -3 0 -300 0 -300
-1660 0 -1660 0 -3 1533 -2 1532 332 -2 333 -3 2 -594z"/>
</g>
</svg>
